<?xml version="1.0" encoding="UTF-8"?>
<svg version="1.1" xmlns="http://www.w3.org/2000/svg" width="70" height="70">
<path d="M0 0 C23.1 0 46.2 0 70 0 C70 23.1 70 46.2 70 70 C46.9 70 23.8 70 0 70 C0 46.9 0 23.8 0 0 Z " fill="#EEDA4F" transform="translate(0,0)"/>
<path d="M0 0 C1.98277913 1.5862233 2.23262361 2.77592708 2.5625 5.25 C0.9125 5.91 -0.7375 6.57 -2.4375 7.25 C-2.7675 6.92 -3.0975 6.59 -3.4375 6.25 C-5.10367115 6.20936168 -6.77138095 6.207279 -8.4375 6.25 C-8.31439357 8.18347205 -8.31439357 8.18347205 -7.4375 10.25 C-5.20139278 11.71705758 -5.20139278 11.71705758 -2.5 12.8125 C2.35911017 14.94491525 2.35911017 14.94491525 4.5625 18.25 C5.09878973 22.99999478 5.23077007 25.14389782 2.75 29.25 C-1.91419855 32.17655596 -6.07452356 32.25359793 -11.4375 31.25 C-14.13465873 29.84994814 -15.38350062 28.58156687 -17.4375 26.25 C-17.4375 25.59 -17.4375 24.93 -17.4375 24.25 C-14.4375 22.25 -14.4375 22.25 -11.4375 22.25 C-11.1075 22.91 -10.7775 23.57 -10.4375 24.25 C-7.7975 24.25 -5.1575 24.25 -2.4375 24.25 C-2.60665336 22.3214897 -2.60665336 22.3214897 -3.4375 20.25 C-5.4062476 18.78922778 -5.4062476 18.78922778 -7.8125 17.6875 C-13.40426218 14.90983312 -13.40426218 14.90983312 -15.4375 12.25 C-16.11584939 9.18046902 -16.01643762 6.33395616 -15.4375 3.25 C-11.40713979 -1.91389902 -5.98111654 -1.84034355 0 0 Z " fill="#393931" transform="translate(59.4375,32.75)"/>
<path d="M0 0 C2.31 0 4.62 0 7 0 C7.14536813 4.39548491 7.23409948 8.79035087 7.3125 13.1875 C7.35439453 14.43337891 7.39628906 15.67925781 7.43945312 16.96289062 C7.56260614 26.15010562 7.56260614 26.15010562 4.796875 30.328125 C0.47741888 32.91014626 -3.11806244 32.9302849 -8 32 C-10.625 30 -10.625 30 -12 28 C-11 25 -11 25 -8.9375 23.8125 C-8.298125 23.544375 -7.65875 23.27625 -7 23 C-6.67 23.66 -6.34 24.32 -6 25 C-4.02 25.33 -2.04 25.66 0 26 C0 17.42 0 8.84 0 0 Z " fill="#3E3D31" transform="translate(31,32)"/>
</svg>
