<?xml version="1.0" encoding="UTF-8"?>
<svg version="1.1" xmlns="http://www.w3.org/2000/svg" width="256" height="256">
<path d="M0 0 C2.06497202 1.16553108 4.12473452 2.34033125 6.1796875 3.5234375 C7.27933838 4.14806885 8.37898926 4.7727002 9.51196289 5.41625977 C16.87497993 9.61053347 24.19365338 13.87810958 31.48046875 18.203125 C37.34870997 21.67673873 43.26850585 25.06113808 49.1796875 28.4609375 C64.60344352 37.35162719 64.60344352 37.35162719 70.8046875 41.0234375 C71.89265625 41.66539063 72.980625 42.30734375 74.1015625 42.96875 C78.69458566 45.97001116 82.94469193 49.04642437 85.8046875 53.8359375 C86.19140625 54.46371094 86.578125 55.09148437 86.9765625 55.73828125 C90.09540502 61.98726645 90.35158751 67.50149147 90.34521484 74.35083008 C90.35193207 75.39063522 90.35864929 76.43044037 90.36557007 77.50175476 C90.38453595 80.93220831 90.38847362 84.36246606 90.390625 87.79296875 C90.39705399 90.18422017 90.40378243 92.57547081 90.41079712 94.96672058 C90.42276644 99.97758813 90.4264783 104.98838675 90.42529297 109.99926758 C90.42508983 116.4082859 90.4523892 122.81686057 90.48683739 129.22577381 C90.50911598 134.16470861 90.5131302 139.10353681 90.51207352 144.04251671 C90.51442812 146.40472632 90.52324366 148.76693893 90.53873825 151.12909889 C90.55841639 154.438999 90.55255221 157.74794461 90.54052734 161.05786133 C90.55176636 162.02595734 90.56300537 162.99405334 90.57458496 163.9914856 C90.48701889 173.51563627 86.87838506 182.14284071 80.0546875 188.8984375 C76.64893078 191.42038628 73.0383552 193.51466908 69.35107422 195.59765625 C66.66954698 197.11659917 64.00475831 198.66303477 61.33984375 200.2109375 C56.32886884 203.11729522 51.30942252 206.00854929 46.28569031 208.89279175 C41.19171934 211.81796323 36.10447484 214.75469905 31.01855469 217.69384766 C27.77456849 219.5672376 24.52804651 221.43617341 21.28125 223.3046875 C17.22379594 225.64121705 13.17790189 227.99598096 9.140625 230.3671875 C7.29948493 231.44011406 5.45833939 232.51303123 3.6171875 233.5859375 C2.80789795 234.06699951 1.9986084 234.54806152 1.16479492 235.04370117 C-7.52450537 240.08297314 -16.70635376 244.46214039 -26.9453125 242.8984375 C-35.26412259 240.56982894 -42.62399052 236.56053807 -50.0703125 232.2734375 C-51.71978882 231.33649048 -51.71978882 231.33649048 -53.40258789 230.38061523 C-60.76560493 226.18634153 -68.08427838 221.91876542 -75.37109375 217.59375 C-81.23933497 214.12013627 -87.15913085 210.73573692 -93.0703125 207.3359375 C-108.49406852 198.44524781 -108.49406852 198.44524781 -114.6953125 194.7734375 C-115.78328125 194.13148438 -116.87125 193.48953125 -117.9921875 192.828125 C-122.58521066 189.82686384 -126.83531693 186.75045063 -129.6953125 181.9609375 C-130.08203125 181.33316406 -130.46875 180.70539063 -130.8671875 180.05859375 C-133.98356712 173.81454328 -134.2422177 168.30577404 -134.23583984 161.46191406 C-134.24255707 160.42371521 -134.24927429 159.38551636 -134.25619507 158.31585693 C-134.27516251 154.89020983 -134.27909884 151.46475883 -134.28125 148.0390625 C-134.28767938 145.65020671 -134.29440785 143.2613517 -134.30142212 140.87249756 C-134.31339219 135.86582617 -134.31710327 130.85922375 -134.31591797 125.85253906 C-134.31571494 119.45258685 -134.34300255 113.05307947 -134.37746239 106.65323257 C-134.39975574 101.71854643 -134.40375473 96.78396687 -134.40269852 91.84923553 C-134.40505135 89.4906435 -134.41385686 87.1320484 -134.42936325 84.77350616 C-134.44906932 81.46620512 -134.44316609 78.15985711 -134.43115234 74.85253906 C-134.44239136 73.88803833 -134.45363037 72.9235376 -134.46520996 71.92980957 C-134.38556896 63.25458097 -131.9846647 55.00081914 -125.90234375 48.578125 C-121.36274856 44.68186566 -116.1152478 41.86320796 -110.9453125 38.8984375 C-109.04003042 37.79354477 -107.13511266 36.68802369 -105.23046875 35.58203125 C-100.21889972 32.67803393 -95.19944807 29.7880102 -90.17631531 26.90406799 C-85.08232734 23.97893118 -79.99509761 21.04217466 -74.90917969 18.10302734 C-71.66519349 16.2296374 -68.41867151 14.36070159 -65.171875 12.4921875 C-61.11442094 10.15565795 -57.06852689 7.80089404 -53.03125 5.4296875 C-51.19010993 4.35676094 -49.34896439 3.28384377 -47.5078125 2.2109375 C-46.69852295 1.72987549 -45.8892334 1.24881348 -45.05541992 0.75317383 C-28.61216289 -8.78292705 -16.70669036 -9.07153079 0 0 Z " fill="#7153DC" transform="translate(149.9453125,10.1015625)"/>
<path d="M0 0 C3.1359157 1.77984405 3.84102736 2.52308207 5 6 C5.13143471 9.33844165 5.04340976 12.65744868 5 16 C10.28 16 15.56 16 21 16 C20.8453125 13.4321875 20.8453125 13.4321875 20.6875 10.8125 C20.69281961 6.68448347 20.77240237 5.34139644 23.125 1.8125 C26.54984225 -0.34663968 28.03371841 -0.82630866 32 0 C34.875 1.8125 34.875 1.8125 37 5 C37.41111401 8.7052301 37.29247535 12.28881273 37 16 C38.10408203 15.91298828 38.10408203 15.91298828 39.23046875 15.82421875 C47.1846819 15.4564546 47.1846819 15.4564546 51.1875 18.125 C53.31640832 21.50188906 53.6667858 23.08263344 53 27 C51.22015595 30.1359157 50.47691793 30.84102736 47 32 C45.27204648 32.06802967 43.54164635 32.08495645 41.8125 32.0625 C40.224375 32.041875 38.63625 32.02125 37 32 C37 37.28 37 42.56 37 48 C38.711875 47.896875 40.42375 47.79375 42.1875 47.6875 C46.31551653 47.69281961 47.65860356 47.77240237 51.1875 50.125 C53.31640832 53.50188906 53.6667858 55.08263344 53 59 C51.22015595 62.1359157 50.47691793 62.84102736 47 64 C45.27204648 64.06802967 43.54164635 64.08495645 41.8125 64.0625 C40.46091797 64.04896484 40.46091797 64.04896484 39.08203125 64.03515625 C38.39496094 64.02355469 37.70789063 64.01195312 37 64 C37.05220703 65.12148437 37.05220703 65.12148437 37.10546875 66.265625 C37.13253906 67.25046875 37.15960938 68.2353125 37.1875 69.25 C37.23970703 70.71179688 37.23970703 70.71179688 37.29296875 72.203125 C36.95325234 75.44628436 36.3158439 76.73109888 34 79 C31.36135393 79.99152409 28.80734983 80.15281945 26 80 C22.73288174 78.32455474 22.172189 77.51656699 21 74 C20.86856529 70.66155835 20.95659024 67.34255132 21 64 C15.72 64 10.44 64 5 64 C5.061875 65.7325 5.12375 67.465 5.1875 69.25 C5.30403172 72.51288825 5.31725593 74.42326005 3.734375 77.30078125 C1.23711855 79.74741764 -0.68314284 79.83835045 -4.0625 80.10546875 C-6 80 -6 80 -8.4375 78.75 C-11.19390148 75.66283035 -11.11378649 72.76155974 -11.0625 68.8125 C-11.04896484 67.46091797 -11.04896484 67.46091797 -11.03515625 66.08203125 C-11.02355469 65.39496094 -11.01195312 64.70789063 -11 64 C-12.12148437 64.05220703 -12.12148437 64.05220703 -13.265625 64.10546875 C-14.25046875 64.13253906 -15.2353125 64.15960938 -16.25 64.1875 C-17.22453125 64.22230469 -18.1990625 64.25710937 -19.203125 64.29296875 C-22.44649146 63.95323064 -23.72406775 63.30718074 -26 61 C-27.12341753 58.32839015 -27.29632805 55.87382298 -27 53 C-25.25 50 -25.25 50 -22 48 C-18.22815649 47.59266206 -14.81482415 47.77019132 -11 48 C-11 42.72 -11 37.44 -11 32 C-12.7325 32.061875 -14.465 32.12375 -16.25 32.1875 C-19.51267895 32.30402425 -21.4196722 32.32130585 -24.29296875 30.73046875 C-26.73411962 28.25580093 -26.97613607 26.39011489 -27.20703125 23.0078125 C-27 21 -27 21 -25.25 18 C-20.55964002 15.11362463 -16.3697305 15.57681634 -11 16 C-11.08701172 14.89591797 -11.08701172 14.89591797 -11.17578125 13.76953125 C-11.5435454 5.8153181 -11.5435454 5.8153181 -8.875 1.8125 C-5.49811094 -0.31640832 -3.91736656 -0.6667858 0 0 Z " fill="#FDFDFE" transform="translate(147,88)"/>
<path d="M0 0 C6.73344227 3.4207327 11.72610355 9.11581064 14.125 16.3125 C14.51033705 20.33630802 14.63821488 24.02946281 13.125 27.8125 C10.12701742 30.06098693 6.84935692 30.70566628 3.125 30.3125 C0.37938028 28.81036747 -0.67074968 27.83541472 -1.81640625 24.90234375 C-2.02136719 24.02707031 -2.22632812 23.15179688 -2.4375 22.25 C-3.36697408 17.98925356 -3.36697408 17.98925356 -6.875 15.3125 C-10.33514295 14.87077962 -12.13776193 14.80047826 -15.03759766 16.81445312 C-17.60599694 20.30632948 -17.4130959 23.48915585 -17.3359375 27.65625 C-17.33502106 28.46235718 -17.33410461 29.26846436 -17.3331604 30.09899902 C-17.32712883 31.80027163 -17.311396 33.50153383 -17.28662109 35.20263672 C-17.25012686 37.80345894 -17.24560178 40.40285475 -17.24609375 43.00390625 C-17.23626139 44.65886645 -17.22460387 46.31381702 -17.2109375 47.96875 C-17.20871185 48.74488647 -17.20648621 49.52102295 -17.20419312 50.32067871 C-17.18147758 55.66543582 -17.18147758 55.66543582 -14.875 60.3125 C-11.54384468 61.17613286 -9.06375669 61.69351176 -5.7421875 60.62890625 C-3.20363789 58.83917567 -3.04275159 57.36670284 -2.375 54.375 C-1.67830424 51.2627867 -1.3167676 49.72535848 1.03515625 47.52734375 C3.99437031 45.80712772 5.75587438 45.76243867 9.125 46.3125 C12 48.3125 12 48.3125 14.125 51.3125 C15.08445653 57.70887687 13.61803808 62.87780109 10.125 68.3125 C5.56024858 73.33372657 0.27532375 77.84220836 -6.6328125 78.625 C-15.0673282 78.96322619 -20.34594581 77.37101363 -26.6875 71.875 C-28.76521857 69.44110111 -30.36061759 67.12492447 -31.875 64.3125 C-32.40161728 63.37883858 -32.40161728 63.37883858 -32.93887329 62.42631531 C-33.95934099 60.12205434 -34.13926698 58.56116086 -34.16552734 56.05395508 C-34.17828705 55.22241409 -34.19104675 54.39087311 -34.20419312 53.53413391 C-34.20641876 52.64244003 -34.20864441 51.75074615 -34.2109375 50.83203125 C-34.2175943 49.90460617 -34.2242511 48.97718109 -34.23110962 48.02165222 C-34.24122829 46.05896992 -34.24592688 44.09625328 -34.24560547 42.13354492 C-34.24995926 39.15289359 -34.28623318 36.17374693 -34.32421875 33.19335938 C-34.3300912 31.28125503 -34.33405773 29.36914369 -34.3359375 27.45703125 C-34.35030853 26.57545853 -34.36467957 25.6938858 -34.37948608 24.78559875 C-34.32493219 17.27354504 -32.3798268 11.27874227 -27.5 5.5 C-19.13357434 -1.47202139 -10.49045406 -4.36515538 0 0 Z " fill="#FCFCFE" transform="translate(89.875,89.6875)"/>
<path d="M0 0 C5.28 0 10.56 0 16 0 C16 5.28 16 10.56 16 16 C10.72 16 5.44 16 0 16 C0 10.72 0 5.44 0 0 Z " fill="#6C4DDB" transform="translate(152,120)"/>
</svg>
